<svg width="287" height="73" viewBox="0 0 287 73" fill="none" xmlns="http://www.w3.org/2000/svg">
<path d="M2.36328 27.21H5.76855L16.2314 32.6885V27.21H19.6367V44H16.2314V36.2979L5.76855 30.8516V44H2.36328V27.21ZM30.1104 27.21H33.7197L41.8408 44H38.2637L36.9209 41.1748H27.1133L25.8135 44H22.2256L30.1104 27.21ZM35.5781 38.3711L31.9473 30.7441L28.4131 38.3711H35.5781ZM44.4619 27.21H47.8672L53.9688 33.333L60.0703 27.21H63.4756V44H60.0703V31.9258L53.9688 37.8018L47.8672 31.9258V44H44.4619V27.21ZM68.2559 27.21H82.5537V30.1963H71.6611V33.5479H81.3076V36.3516H71.6611V41.0244H82.7793V44H68.2559V27.21Z" fill="black"/>
<path d="M203.169 39.0049C203.778 39.3486 204.394 39.6602 205.017 39.9395C205.647 40.2116 206.299 40.4443 206.972 40.6377C207.645 40.8239 208.35 40.9671 209.088 41.0674C209.833 41.1676 210.624 41.2178 211.462 41.2178C212.472 41.2178 213.331 41.1533 214.04 41.0244C214.749 40.8883 215.326 40.7057 215.77 40.4766C216.221 40.2402 216.547 39.9609 216.747 39.6387C216.955 39.3164 217.059 38.9655 217.059 38.5859C217.059 37.9772 216.804 37.4974 216.296 37.1465C215.787 36.7884 215.003 36.6094 213.943 36.6094C213.478 36.6094 212.987 36.6416 212.472 36.7061C211.956 36.7633 211.433 36.8278 210.903 36.8994C210.381 36.971 209.861 37.0391 209.346 37.1035C208.837 37.1608 208.357 37.1895 207.906 37.1895C207.154 37.1895 206.431 37.0928 205.736 36.8994C205.049 36.7061 204.437 36.416 203.899 36.0293C203.369 35.6426 202.947 35.1592 202.632 34.5791C202.317 33.999 202.159 33.3223 202.159 32.5488C202.159 32.0905 202.22 31.6357 202.342 31.1846C202.471 30.7334 202.671 30.3037 202.943 29.8955C203.223 29.4801 203.581 29.097 204.018 28.7461C204.454 28.388 204.981 28.0801 205.597 27.8223C206.22 27.5645 206.936 27.3639 207.745 27.2207C208.562 27.0703 209.489 26.9951 210.527 26.9951C211.279 26.9951 212.035 27.0381 212.794 27.124C213.553 27.2028 214.291 27.3174 215.007 27.4678C215.73 27.6182 216.425 27.8008 217.091 28.0156C217.757 28.2233 218.376 28.4561 218.949 28.7139L217.456 31.4639C216.983 31.2562 216.475 31.0664 215.931 30.8945C215.386 30.7155 214.817 30.5615 214.223 30.4326C213.628 30.3037 213.012 30.2035 212.375 30.1318C211.745 30.0531 211.1 30.0137 210.441 30.0137C209.503 30.0137 208.73 30.0817 208.121 30.2178C207.52 30.3538 207.04 30.5293 206.682 30.7441C206.324 30.9518 206.073 31.1882 205.93 31.4531C205.794 31.7109 205.726 31.9688 205.726 32.2266C205.726 32.7279 205.951 33.1396 206.402 33.4619C206.854 33.777 207.541 33.9346 208.465 33.9346C208.837 33.9346 209.263 33.9095 209.743 33.8594C210.23 33.8021 210.739 33.7412 211.269 33.6768C211.806 33.6123 212.35 33.555 212.901 33.5049C213.46 33.4476 214.001 33.4189 214.523 33.4189C215.512 33.4189 216.385 33.5299 217.145 33.752C217.911 33.974 218.552 34.2926 219.067 34.708C219.583 35.1162 219.973 35.6139 220.238 36.2012C220.503 36.7812 220.636 37.4329 220.636 38.1562C220.636 39.123 220.41 39.986 219.959 40.7451C219.515 41.4971 218.878 42.1344 218.047 42.6572C217.223 43.1729 216.228 43.5667 215.061 43.8389C213.893 44.1038 212.593 44.2363 211.161 44.2363C210.216 44.2363 209.292 44.1755 208.39 44.0537C207.487 43.9391 206.621 43.7744 205.79 43.5596C204.966 43.3376 204.179 43.0762 203.427 42.7754C202.682 42.4674 201.991 42.1309 201.354 41.7656L203.169 39.0049ZM224.374 27.21H227.779V31.5928H238.221V27.21H241.637V44H238.221V34.5039H227.779V44H224.374V27.21ZM245.418 35.5566C245.418 34.2891 245.651 33.1289 246.116 32.0762C246.582 31.0234 247.233 30.1211 248.071 29.3691C248.916 28.61 249.926 28.0228 251.101 27.6074C252.282 27.1921 253.589 26.9844 255.021 26.9844C256.447 26.9844 257.75 27.1921 258.932 27.6074C260.113 28.0228 261.123 28.61 261.961 29.3691C262.806 30.1211 263.461 31.0234 263.927 32.0762C264.392 33.1289 264.625 34.2891 264.625 35.5566C264.625 36.8314 264.392 38.0023 263.927 39.0693C263.461 40.1292 262.806 41.0423 261.961 41.8086C261.123 42.5749 260.113 43.1729 258.932 43.6025C257.75 44.0251 256.447 44.2363 255.021 44.2363C253.589 44.2363 252.282 44.0251 251.101 43.6025C249.926 43.1729 248.916 42.5749 248.071 41.8086C247.233 41.0423 246.582 40.1292 246.116 39.0693C245.651 38.0023 245.418 36.8314 245.418 35.5566ZM248.823 35.5566C248.823 36.4232 248.977 37.2038 249.285 37.8984C249.6 38.5931 250.034 39.1875 250.585 39.6816C251.144 40.1686 251.799 40.5446 252.551 40.8096C253.31 41.0745 254.133 41.207 255.021 41.207C255.91 41.207 256.729 41.0745 257.481 40.8096C258.241 40.5446 258.896 40.1686 259.447 39.6816C259.999 39.1875 260.432 38.5931 260.747 37.8984C261.062 37.2038 261.22 36.4232 261.22 35.5566C261.22 34.6901 261.062 33.9131 260.747 33.2256C260.432 32.5381 259.999 31.958 259.447 31.4854C258.896 31.0055 258.241 30.6403 257.481 30.3896C256.729 30.139 255.91 30.0137 255.021 30.0137C254.133 30.0137 253.31 30.139 252.551 30.3896C251.799 30.6403 251.144 31.0055 250.585 31.4854C250.034 31.958 249.6 32.5381 249.285 33.2256C248.977 33.9131 248.823 34.6901 248.823 35.5566ZM268.406 27.21H277.258C278.547 27.21 279.664 27.3496 280.609 27.6289C281.555 27.9082 282.339 28.3128 282.962 28.8428C283.585 29.3656 284.047 30.0065 284.348 30.7656C284.656 31.5247 284.81 32.3805 284.81 33.333C284.81 34.2282 284.659 35.0553 284.358 35.8145C284.058 36.5736 283.596 37.2324 282.973 37.791C282.357 38.3424 281.576 38.7757 280.631 39.0908C279.686 39.3988 278.568 39.5527 277.279 39.5527L271.812 39.542V44H268.406V27.21ZM277.344 36.5986C277.988 36.5986 278.55 36.5234 279.03 36.373C279.517 36.2155 279.922 35.9971 280.244 35.7178C280.574 35.4313 280.817 35.0876 280.975 34.6865C281.139 34.2783 281.222 33.8271 281.222 33.333C281.222 32.3376 280.896 31.5641 280.244 31.0127C279.6 30.4541 278.633 30.1748 277.344 30.1748H271.812V36.5986H277.344Z" fill="black"/>
<path d="M124.383 36.2367C124.217 39.1648 126.442 41.6717 129.333 41.8402C129.437 41.8402 129.541 41.8402 129.645 41.8402C132.557 41.8402 134.908 39.4598 134.887 36.5105C134.887 33.5613 132.536 31.1808 129.625 31.2019C126.837 31.2019 124.529 33.4138 124.383 36.2367Z" fill="url(#paint0_linear_1_33)"/>
<path d="M104.79 34.8674C103.855 34.8042 103.043 35.5415 103.002 36.4895C102.96 37.4374 103.667 38.259 104.603 38.3011C105.539 38.3643 106.33 37.627 106.392 36.6791C106.454 35.7311 105.726 34.9306 104.79 34.8674Z" fill="url(#paint1_linear_1_33)"/>
<path d="M124.05 5.35388C124.882 4.93256 125.215 3.87926 124.799 3.03662C124.383 2.19398 123.343 1.85692 122.511 2.27825C121.679 2.69957 121.347 3.7318 121.763 4.57444C122.178 5.43815 123.198 5.79627 124.05 5.35388Z" fill="url(#paint2_linear_1_33)"/>
<path d="M129.375 14.7704C130.665 14.1173 131.184 12.5163 130.54 11.2102C129.895 9.90414 128.314 9.37749 127.025 10.0305C125.735 10.6836 125.215 12.2846 125.86 13.5907C126.505 14.8968 128.085 15.4234 129.375 14.7704Z" fill="url(#paint3_linear_1_33)"/>
<path d="M111.446 21.2377C112.445 21.8907 113.776 21.6169 114.441 20.6057C115.086 19.5945 114.816 18.2463 113.817 17.5722C112.819 16.9191 111.488 17.193 110.822 18.2042C110.157 19.2153 110.448 20.5846 111.446 21.2377Z" fill="url(#paint4_linear_1_33)"/>
<path d="M114.628 33.9194C113.172 33.8351 111.945 34.9516 111.862 36.4263C111.779 37.9009 112.881 39.1438 114.337 39.228C115.793 39.3123 117.02 38.1958 117.104 36.7212C117.187 35.2676 116.084 34.0037 114.628 33.9194Z" fill="url(#paint5_linear_1_33)"/>
<path d="M111.737 51.7623C110.677 52.31 110.24 53.6161 110.781 54.7116C111.321 55.7859 112.611 56.2283 113.692 55.6806C114.753 55.1329 115.19 53.8268 114.649 52.7314C114.108 51.657 112.798 51.2146 111.737 51.7623Z" fill="url(#paint6_linear_1_33)"/>
<path d="M121.929 28.4212C123.364 29.3691 125.278 28.9689 126.193 27.5153C127.129 26.0618 126.733 24.1237 125.298 23.1968C123.863 22.2488 121.95 22.6491 121.035 24.1026C120.099 25.5351 120.494 27.4732 121.929 28.4212Z" fill="url(#paint7_linear_1_33)"/>
<path d="M154.271 14.5597C155.478 15.3602 157.121 15.0232 157.911 13.8014C158.702 12.5795 158.369 10.9153 157.163 10.1148C155.956 9.3143 154.313 9.65135 153.523 10.8732C152.712 12.1161 153.044 13.7592 154.271 14.5597Z" fill="url(#paint8_linear_1_33)"/>
<path d="M159.638 5.18536C160.428 5.71201 161.468 5.48028 161.988 4.67977C162.508 3.87926 162.279 2.82596 161.489 2.29931C160.698 1.77266 159.658 2.00439 159.138 2.78383C158.639 3.58434 158.868 4.65871 159.638 5.18536Z" fill="url(#paint9_linear_1_33)"/>
<path d="M154.667 31.1598C151.776 30.9912 149.28 33.2453 149.134 36.1735C148.968 39.1016 151.193 41.6296 154.084 41.777C154.188 41.777 154.292 41.777 154.375 41.777C157.267 41.777 159.617 39.3966 159.617 36.4473C159.638 33.6455 157.454 31.3072 154.667 31.1598Z" fill="url(#paint10_linear_1_33)"/>
<path d="M131.101 28.042C131.996 29.8326 133.805 30.9702 135.802 30.9702C138.693 30.9702 141.043 28.5897 141.043 25.6405C141.043 24.8189 140.856 23.9973 140.482 23.2389C139.171 20.6057 136.01 19.5524 133.431 20.8795C130.831 22.2278 129.791 25.4298 131.101 28.042Z" fill="url(#paint11_linear_1_33)"/>
<path d="M172.263 21.2377C173.323 20.6899 173.739 19.3628 173.199 18.2884C172.658 17.2141 171.347 16.7927 170.287 17.3405C169.226 17.8882 168.81 19.1943 169.33 20.2686C169.892 21.343 171.181 21.7854 172.263 21.2377Z" fill="url(#paint12_linear_1_33)"/>
<path d="M158.951 22.9229C157.433 23.7024 156.809 25.5773 157.579 27.1151C158.348 28.6529 160.199 29.2849 161.718 28.5054C163.236 27.726 163.86 25.8511 163.09 24.3133C162.321 22.7755 160.47 22.1646 158.951 22.9229Z" fill="url(#paint13_linear_1_33)"/>
<path d="M141.792 4.38485C142.978 4.44805 143.997 3.52114 144.08 2.32038C144.163 1.11961 143.227 0.0873791 142.042 0.00311499C140.856 -0.0600831 139.837 0.845756 139.754 2.04652C139.691 3.26835 140.606 4.30058 141.792 4.38485Z" fill="url(#paint14_linear_1_33)"/>
<path d="M141.771 18.141C143.477 18.2463 144.933 16.9191 145.016 15.1917C145.12 13.4643 143.81 11.9897 142.104 11.9054C140.398 11.8001 138.943 13.1272 138.859 14.8547C138.776 16.5821 140.066 18.0567 141.771 18.141Z" fill="url(#paint15_linear_1_33)"/>
<path d="M125.049 50.077C126.567 49.2976 127.191 47.4227 126.421 45.8849C125.652 44.3471 123.801 43.7151 122.282 44.4945C120.764 45.274 120.14 47.1489 120.91 48.6867C121.679 50.2245 123.53 50.8565 125.049 50.077Z" fill="url(#paint16_linear_1_33)"/>
<path d="M143.768 22.7123C142.187 25.177 142.853 28.4633 145.286 30.0643C147.72 31.6653 150.964 30.9912 152.545 28.5265C154.126 26.0618 153.46 22.7755 151.027 21.1745C150.174 20.6057 149.176 20.3108 148.157 20.3108C146.389 20.3108 144.745 21.2166 143.768 22.7123Z" fill="url(#paint17_linear_1_33)"/>
<path d="M152.915 44.9761C152.908 44.965 152.896 44.9518 152.89 44.9399C151.574 42.3199 148.421 41.2745 145.848 42.5986C143.248 43.9258 142.208 47.1278 143.518 49.74C144.829 52.3732 147.99 53.4265 150.569 52.0994C153.14 50.7977 154.202 47.6545 152.932 45.0265C152.924 45.0092 152.926 44.9921 152.915 44.9761V44.9761Z" fill="url(#paint18_linear_1_33)"/>
<path d="M162.071 44.5788C160.636 43.6309 158.722 44.0311 157.807 45.4847C156.871 46.9382 157.267 48.8763 158.702 49.8032C160.137 50.7512 162.05 50.3509 162.965 48.8974C163.901 47.4649 163.506 45.5268 162.071 44.5788Z" fill="url(#paint19_linear_1_33)"/>
<path d="M172.138 36.5948C172.221 35.1202 171.119 33.8773 169.663 33.793C168.207 33.7087 166.98 34.8252 166.896 36.2999C166.813 37.7745 167.916 39.0174 169.372 39.1017C170.807 39.1859 172.055 38.0483 172.138 36.5948Z" fill="url(#paint20_linear_1_33)"/>
<path d="M179.397 34.6988C178.461 34.6356 177.65 35.373 177.608 36.3209C177.566 37.2689 178.274 38.0905 179.21 38.1326C180.145 38.1958 180.936 37.4585 180.998 36.5105C181.04 35.5626 180.333 34.762 179.397 34.6988Z" fill="url(#paint21_linear_1_33)"/>
<path d="M172.554 51.7623C171.555 51.1093 170.224 51.3831 169.559 52.3943C168.914 53.4055 169.184 54.7537 170.183 55.4278C171.181 56.0809 172.512 55.807 173.178 54.7958C173.843 53.7847 173.552 52.4154 172.554 51.7623Z" fill="url(#paint22_linear_1_33)"/>
<path d="M124.342 67.8146C123.551 67.288 122.511 67.5197 121.991 68.2992C121.471 69.0997 121.7 70.153 122.47 70.6796C123.26 71.2063 124.3 70.9745 124.82 70.1951C125.361 69.4157 125.132 68.3413 124.342 67.8146Z" fill="url(#paint23_linear_1_33)"/>
<path d="M159.95 67.6461C159.118 68.0674 158.785 69.1207 159.201 69.9634C159.617 70.806 160.657 71.1431 161.489 70.7218C162.321 70.3004 162.653 69.2682 162.237 68.4256C161.822 67.5619 160.802 67.2037 159.95 67.6461Z" fill="url(#paint24_linear_1_33)"/>
<path d="M140.232 50.2877C141.813 47.823 141.147 44.5367 138.714 42.9146C136.28 41.3136 133.036 41.9877 131.434 44.4524C129.833 46.9171 130.519 50.2034 132.952 51.8255C133.805 52.3943 134.804 52.6892 135.823 52.6892C137.611 52.7103 139.255 51.8045 140.232 50.2877Z" fill="url(#paint25_linear_1_33)"/>
<path d="M129.729 58.4403C128.522 57.6398 126.879 57.9768 126.089 59.1986C125.298 60.4205 125.631 62.0847 126.837 62.8852C128.044 63.6857 129.687 63.3486 130.477 62.1268C131.288 60.905 130.956 59.2408 129.729 58.4403Z" fill="url(#paint26_linear_1_33)"/>
<path d="M141.979 68.6152C140.794 68.552 139.774 69.4789 139.691 70.6796C139.608 71.8804 140.544 72.9126 141.73 72.9969C142.915 73.0601 143.934 72.1542 144.018 70.9535C144.08 69.7316 143.165 68.6994 141.979 68.6152Z" fill="url(#paint27_linear_1_33)"/>
<path d="M142 54.859C140.294 54.7537 138.839 56.0809 138.755 57.8083C138.651 59.5357 139.962 61.0103 141.667 61.0946C143.373 61.1788 144.829 59.8727 144.912 58.1453C145.016 56.439 143.706 54.9433 142 54.859Z" fill="url(#paint28_linear_1_33)"/>
<path d="M154.625 58.2296C153.335 58.9037 152.816 60.5047 153.481 61.8108C154.147 63.1169 155.727 63.6436 157.017 62.9695C158.306 62.3164 158.826 60.7154 158.182 59.4093C157.516 58.1032 155.935 57.5555 154.625 58.2296Z" fill="url(#paint29_linear_1_33)"/>
<defs>
<linearGradient id="paint0_linear_1_33" x1="100.89" y1="-52.0124" x2="211.151" y2="-43.498" gradientUnits="userSpaceOnUse">
<stop stop-color="#300216"/>
<stop offset="1" stop-color="#FF7251"/>
</linearGradient>
<linearGradient id="paint1_linear_1_33" x1="100.89" y1="-52.0124" x2="211.151" y2="-43.498" gradientUnits="userSpaceOnUse">
<stop stop-color="#300216"/>
<stop offset="1" stop-color="#FF7251"/>
</linearGradient>
<linearGradient id="paint2_linear_1_33" x1="100.89" y1="-52.0124" x2="211.151" y2="-43.498" gradientUnits="userSpaceOnUse">
<stop stop-color="#300216"/>
<stop offset="1" stop-color="#FF7251"/>
</linearGradient>
<linearGradient id="paint3_linear_1_33" x1="100.89" y1="-52.0124" x2="211.151" y2="-43.498" gradientUnits="userSpaceOnUse">
<stop stop-color="#300216"/>
<stop offset="1" stop-color="#FF7251"/>
</linearGradient>
<linearGradient id="paint4_linear_1_33" x1="100.89" y1="-52.0124" x2="211.151" y2="-43.498" gradientUnits="userSpaceOnUse">
<stop stop-color="#300216"/>
<stop offset="1" stop-color="#FF7251"/>
</linearGradient>
<linearGradient id="paint5_linear_1_33" x1="100.89" y1="-52.0124" x2="211.151" y2="-43.498" gradientUnits="userSpaceOnUse">
<stop stop-color="#300216"/>
<stop offset="1" stop-color="#FF7251"/>
</linearGradient>
<linearGradient id="paint6_linear_1_33" x1="100.89" y1="-52.0124" x2="211.151" y2="-43.498" gradientUnits="userSpaceOnUse">
<stop stop-color="#300216"/>
<stop offset="1" stop-color="#FF7251"/>
</linearGradient>
<linearGradient id="paint7_linear_1_33" x1="100.89" y1="-52.0124" x2="211.151" y2="-43.498" gradientUnits="userSpaceOnUse">
<stop stop-color="#300216"/>
<stop offset="1" stop-color="#FF7251"/>
</linearGradient>
<linearGradient id="paint8_linear_1_33" x1="100.89" y1="-52.0124" x2="211.151" y2="-43.498" gradientUnits="userSpaceOnUse">
<stop stop-color="#300216"/>
<stop offset="1" stop-color="#FF7251"/>
</linearGradient>
<linearGradient id="paint9_linear_1_33" x1="100.89" y1="-52.0124" x2="211.151" y2="-43.498" gradientUnits="userSpaceOnUse">
<stop stop-color="#300216"/>
<stop offset="1" stop-color="#FF7251"/>
</linearGradient>
<linearGradient id="paint10_linear_1_33" x1="100.89" y1="-52.0124" x2="211.151" y2="-43.498" gradientUnits="userSpaceOnUse">
<stop stop-color="#300216"/>
<stop offset="1" stop-color="#FF7251"/>
</linearGradient>
<linearGradient id="paint11_linear_1_33" x1="100.89" y1="-52.0124" x2="211.151" y2="-43.498" gradientUnits="userSpaceOnUse">
<stop stop-color="#300216"/>
<stop offset="1" stop-color="#FF7251"/>
</linearGradient>
<linearGradient id="paint12_linear_1_33" x1="100.89" y1="-52.0124" x2="211.151" y2="-43.498" gradientUnits="userSpaceOnUse">
<stop stop-color="#300216"/>
<stop offset="1" stop-color="#FF7251"/>
</linearGradient>
<linearGradient id="paint13_linear_1_33" x1="100.89" y1="-52.0124" x2="211.151" y2="-43.498" gradientUnits="userSpaceOnUse">
<stop stop-color="#300216"/>
<stop offset="1" stop-color="#FF7251"/>
</linearGradient>
<linearGradient id="paint14_linear_1_33" x1="100.89" y1="-52.0124" x2="211.151" y2="-43.498" gradientUnits="userSpaceOnUse">
<stop stop-color="#300216"/>
<stop offset="1" stop-color="#FF7251"/>
</linearGradient>
<linearGradient id="paint15_linear_1_33" x1="100.89" y1="-52.0124" x2="211.151" y2="-43.498" gradientUnits="userSpaceOnUse">
<stop stop-color="#300216"/>
<stop offset="1" stop-color="#FF7251"/>
</linearGradient>
<linearGradient id="paint16_linear_1_33" x1="100.89" y1="-52.0124" x2="211.151" y2="-43.498" gradientUnits="userSpaceOnUse">
<stop stop-color="#300216"/>
<stop offset="1" stop-color="#FF7251"/>
</linearGradient>
<linearGradient id="paint17_linear_1_33" x1="100.89" y1="-52.0124" x2="211.151" y2="-43.498" gradientUnits="userSpaceOnUse">
<stop stop-color="#300216"/>
<stop offset="1" stop-color="#FF7251"/>
</linearGradient>
<linearGradient id="paint18_linear_1_33" x1="100.89" y1="-52.0124" x2="211.151" y2="-43.498" gradientUnits="userSpaceOnUse">
<stop stop-color="#300216"/>
<stop offset="1" stop-color="#FF7251"/>
</linearGradient>
<linearGradient id="paint19_linear_1_33" x1="100.89" y1="-52.0124" x2="211.151" y2="-43.498" gradientUnits="userSpaceOnUse">
<stop stop-color="#300216"/>
<stop offset="1" stop-color="#FF7251"/>
</linearGradient>
<linearGradient id="paint20_linear_1_33" x1="100.89" y1="-52.0124" x2="211.151" y2="-43.498" gradientUnits="userSpaceOnUse">
<stop stop-color="#300216"/>
<stop offset="1" stop-color="#FF7251"/>
</linearGradient>
<linearGradient id="paint21_linear_1_33" x1="100.89" y1="-52.0124" x2="211.151" y2="-43.498" gradientUnits="userSpaceOnUse">
<stop stop-color="#300216"/>
<stop offset="1" stop-color="#FF7251"/>
</linearGradient>
<linearGradient id="paint22_linear_1_33" x1="100.89" y1="-52.0124" x2="211.151" y2="-43.498" gradientUnits="userSpaceOnUse">
<stop stop-color="#300216"/>
<stop offset="1" stop-color="#FF7251"/>
</linearGradient>
<linearGradient id="paint23_linear_1_33" x1="100.89" y1="-52.0124" x2="211.151" y2="-43.498" gradientUnits="userSpaceOnUse">
<stop stop-color="#300216"/>
<stop offset="1" stop-color="#FF7251"/>
</linearGradient>
<linearGradient id="paint24_linear_1_33" x1="100.89" y1="-52.0124" x2="211.151" y2="-43.498" gradientUnits="userSpaceOnUse">
<stop stop-color="#300216"/>
<stop offset="1" stop-color="#FF7251"/>
</linearGradient>
<linearGradient id="paint25_linear_1_33" x1="100.89" y1="-52.0124" x2="211.151" y2="-43.498" gradientUnits="userSpaceOnUse">
<stop stop-color="#300216"/>
<stop offset="1" stop-color="#FF7251"/>
</linearGradient>
<linearGradient id="paint26_linear_1_33" x1="100.89" y1="-52.0124" x2="211.151" y2="-43.498" gradientUnits="userSpaceOnUse">
<stop stop-color="#300216"/>
<stop offset="1" stop-color="#FF7251"/>
</linearGradient>
<linearGradient id="paint27_linear_1_33" x1="100.89" y1="-52.0124" x2="211.151" y2="-43.498" gradientUnits="userSpaceOnUse">
<stop stop-color="#300216"/>
<stop offset="1" stop-color="#FF7251"/>
</linearGradient>
<linearGradient id="paint28_linear_1_33" x1="100.89" y1="-52.0124" x2="211.151" y2="-43.498" gradientUnits="userSpaceOnUse">
<stop stop-color="#300216"/>
<stop offset="1" stop-color="#FF7251"/>
</linearGradient>
<linearGradient id="paint29_linear_1_33" x1="100.89" y1="-52.0124" x2="211.151" y2="-43.498" gradientUnits="userSpaceOnUse">
<stop stop-color="#300216"/>
<stop offset="1" stop-color="#FF7251"/>
</linearGradient>
</defs>
</svg>
